<?xml version="1.0" standalone="no"?>
<!DOCTYPE svg PUBLIC "-//W3C//DTD SVG 20010904//EN"
 "http://www.w3.org/TR/2001/REC-SVG-20010904/DTD/svg10.dtd">
<svg version="1.0" xmlns="http://www.w3.org/2000/svg"
 width="1024.000000pt" height="1024.000000pt" viewBox="0 0 1024.000000 1024.000000"
 preserveAspectRatio="xMidYMid meet">

<g transform="translate(0.000000,1024.000000) scale(0.100000,-0.100000)"
fill="#000000" stroke="none">
<path d="M4794 8045 c-806 -93 -1523 -512 -2020 -1181 -127 -171 -270 -433
-357 -654 -115 -291 -181 -616 -194 -955 -12 -316 39 -652 146 -965 158 -466
444 -901 803 -1223 356 -319 781 -544 1247 -661 253 -64 390 -80 691 -80 299
-1 395 8 635 61 976 213 1774 902 2103 1813 56 157 116 408 142 595 17 125 23
475 12 635 -35 467 -190 915 -461 1330 -217 332 -532 637 -894 867 -269 170
-653 321 -977 384 -248 48 -627 63 -876 34z m455 -349 c-2 -2 -94 -5 -204 -8
-110 -3 -171 -2 -135 2 70 7 346 12 339 6z m-396 -25 c10 -3 61 -3 113 2 95 8
96 8 115 -18 17 -21 29 -25 70 -25 l49 0 0 -40 0 -40 45 0 c25 0 45 5 45 10 0
6 16 10 35 10 31 0 35 -3 35 -25 0 -19 5 -25 22 -25 12 0 30 -7 40 -17 11 -9
18 -11 18 -5 0 7 16 12 40 12 22 0 40 -4 40 -10 0 -5 18 -10 40 -10 l40 0 0
-40 0 -40 74 0 c66 0 75 -2 81 -20 3 -11 3 -25 -1 -31 -5 -9 9 -11 52 -7 76 7
84 3 84 -38 0 -24 5 -34 15 -34 11 0 15 -11 15 -40 0 -36 3 -40 25 -40 23 0
25 -4 25 -40 0 -39 1 -40 37 -40 20 0 45 -7 55 -17 17 -15 18 -15 18 0 0 11 8
17 25 17 23 0 25 -4 25 -40 0 -29 4 -40 15 -40 11 0 15 11 15 40 0 39 1 40 35
40 34 0 35 -1 35 -40 0 -24 -5 -40 -12 -40 -6 0 -4 -7 5 -18 10 -10 17 -28 17
-40 0 -16 6 -22 22 -22 12 0 30 -7 40 -17 17 -15 18 -15 18 0 0 13 9 17 40 17
l40 0 0 -40 c0 -23 5 -40 11 -40 6 0 20 -11 31 -25 25 -32 38 -32 38 1 l0 26
77 -7 c61 -6 82 -13 105 -33 15 -14 28 -29 28 -34 0 -4 -37 -8 -82 -8 -78 0
-80 -1 -65 -18 10 -10 17 -28 17 -40 0 -12 4 -22 9 -22 12 0 71 -59 71 -71 0
-5 7 -9 15 -9 11 0 15 -11 15 -40 0 -36 3 -40 25 -40 17 0 25 -6 25 -17 0 -15
2 -15 9 -4 8 12 15 10 39 -10 17 -13 31 -30 31 -36 1 -8 15 -13 36 -13 33 0
35 -2 35 -34 0 -19 -6 -36 -12 -39 -10 -3 -8 -9 5 -24 9 -11 17 -29 17 -41 0
-19 6 -22 40 -22 l40 0 0 -80 c0 -47 4 -80 10 -80 6 0 10 -18 10 -40 0 -38 2
-40 30 -40 28 0 30 -2 30 -40 0 -29 4 -40 15 -40 11 0 15 -11 15 -40 0 -22 5
-40 10 -40 6 0 10 -18 10 -40 0 -28 4 -40 14 -40 10 0 16 -22 21 -80 4 -44 11
-80 16 -80 5 0 9 -18 9 -40 0 -29 -4 -40 -15 -40 -8 0 -15 -4 -15 -9 0 -12 58
-71 69 -71 11 0 24 -134 16 -159 -3 -10 -1 -30 4 -44 13 -34 3 -37 -133 -37
l-113 0 -6 73 c-7 81 -65 318 -97 399 -45 113 -107 228 -188 351 -46 70 -90
131 -97 135 -6 4 -14 12 -16 19 -6 18 -133 162 -144 163 -5 0 -23 18 -39 38
-49 61 -209 181 -326 243 -25 13 -47 26 -50 29 -8 9 -197 100 -207 100 -6 0
-23 6 -39 14 -65 32 -310 86 -446 98 l-138 12 0 122 c0 106 2 125 18 134 16
11 16 11 0 6 -13 -4 -18 0 -18 14 0 10 -9 22 -20 25 -23 7 -50 -10 -50 -31 0
-8 -8 -15 -17 -15 -17 -1 -17 -2 0 -6 15 -4 17 -19 17 -124 0 -88 -3 -119 -12
-119 -50 0 -335 -44 -397 -60 -237 -65 -357 -118 -355 -158 1 -18 -3 -21 -20
-17 -17 5 -18 4 -6 -4 8 -6 32 -11 53 -11 30 0 37 4 37 20 0 12 -7 20 -17 20
-15 0 -16 2 -3 10 10 6 16 6 18 0 2 -6 21 -10 43 -10 21 0 39 -4 39 -10 0 -5
7 -10 15 -10 8 0 15 -4 15 -10 0 -5 -4 -10 -9 -10 -5 0 -11 -34 -13 -75 l-3
-75 34 5 c18 2 34 5 35 7 12 23 22 68 15 68 -5 0 -9 7 -9 15 0 14 3 13 25 -2
13 -10 25 -22 25 -26 0 -5 7 -24 16 -43 15 -31 19 -33 57 -30 25 2 29 1 12 -2
l-30 -5 30 -8 c23 -7 20 -7 -14 -3 -24 2 -59 0 -78 -7 -36 -12 -58 -4 -33 11
9 6 10 10 3 10 -6 0 -15 -5 -18 -10 -4 -7 -12 -7 -25 0 -24 13 -50 13 -50 0 0
-6 6 -10 13 -8 6 1 29 -4 50 -11 30 -10 44 -10 67 -1 16 7 35 10 42 7 17 -6
-62 -27 -121 -33 -25 -3 -48 -9 -51 -15 -4 -5 -15 -7 -26 -4 -13 4 -11 2 5 -8
23 -14 23 -14 -33 -37 -31 -13 -56 -27 -56 -32 0 -4 -5 -8 -11 -8 -6 0 -31
-14 -56 -30 -24 -17 -48 -28 -53 -25 -5 3 -12 0 -16 -6 -5 -8 -3 -9 6 -4 9 6
11 4 6 -4 -5 -7 -15 -10 -23 -7 -8 3 -12 2 -8 -3 3 -5 -8 -19 -25 -31 -75 -54
-220 -196 -284 -280 -169 -219 -263 -444 -307 -729 -7 -46 -9 -144 -6 -250 5
-183 21 -277 78 -442 45 -131 161 -344 232 -424 38 -44 47 -62 25 -49 -8 4
-10 3 -5 -2 5 -5 12 -9 17 -9 4 0 55 -45 112 -100 57 -55 117 -110 133 -123
17 -13 22 -21 13 -18 -25 7 -22 -1 3 -15 15 -8 19 -8 15 0 -12 20 4 12 71 -34
36 -25 70 -45 76 -45 6 0 8 -3 5 -6 -7 -6 -84 31 -93 46 -3 5 -11 10 -16 10
-39 0 87 -70 128 -71 27 -1 27 -1 4 -8 -23 -6 -21 -8 17 -20 23 -8 42 -19 42
-24 0 -5 14 -7 33 -3 24 4 28 3 17 -5 -12 -8 -9 -9 13 -5 15 4 27 2 27 -4 0
-5 -7 -10 -16 -10 -8 0 -12 -5 -9 -11 4 -6 13 -8 21 -5 7 3 28 -1 46 -9 l33
-15 -40 5 c-30 4 -35 3 -20 -4 11 -5 37 -10 58 -10 34 -1 37 -3 27 -21 -6 -11
-8 -31 -6 -45 3 -17 0 -25 -10 -25 -11 0 -14 -17 -14 -80 0 -76 -1 -80 -22
-81 -13 0 -17 -3 -10 -6 22 -9 62 7 63 25 0 10 3 12 6 5 2 -7 21 -14 41 -14
34 -2 33 -2 -15 -12 -62 -11 -73 -32 -13 -22 33 6 40 4 40 -9 0 -9 5 -16 10
-16 6 0 10 -5 10 -12 0 -9 -3 -9 -12 0 -7 7 -26 12 -42 12 l-31 -1 26 -14 c14
-8 82 -24 150 -36 346 -60 736 -7 1062 145 43 20 80 36 82 36 13 0 237 148
307 203 175 137 379 376 468 547 82 157 89 175 146 350 19 58 39 119 45 135 6
17 12 44 13 60 12 109 20 145 30 146 6 0 2 4 -9 9 -12 5 127 8 330 7 l350 -1
-260 -6 -260 -6 200 -3 c168 -4 186 -5 115 -11 -79 -6 -120 -16 -120 -27 0 -9
29 -33 40 -33 9 0 11 -22 5 -85 l-7 -85 61 0 61 0 0 -40 c0 -22 5 -40 10 -40
6 0 10 -18 10 -40 0 -28 4 -40 14 -40 8 0 17 -11 20 -24 9 -35 -4 -118 -21
-138 -8 -9 -13 -25 -10 -35 4 -15 5 -14 6 4 0 12 6 25 13 29 8 5 9 2 5 -10 -4
-10 -10 -29 -13 -43 -5 -18 -9 -21 -15 -11 -5 7 -9 23 -9 35 0 27 -19 40 -31
22 -13 -21 -11 -73 6 -112 11 -26 12 -38 3 -43 -7 -5 -9 -2 -4 7 4 8 0 5 -8
-6 -9 -11 -14 -25 -11 -32 2 -8 -3 -22 -13 -33 -9 -11 -17 -26 -18 -33 -3 -32
-5 -37 -13 -37 -5 0 -13 9 -16 21 -4 11 -9 18 -12 15 -3 -3 2 -17 11 -30 8
-14 12 -27 7 -31 -5 -3 -12 1 -14 7 -3 7 -5 2 -5 -12 1 -29 -40 -102 -53 -94
-5 3 -6 -1 -3 -9 3 -8 -2 -20 -11 -27 -8 -7 -15 -16 -15 -21 0 -12 -122 -183
-173 -243 -25 -28 -54 -62 -65 -76 -17 -21 -22 -23 -36 -11 -15 12 -19 12 -33
-2 -14 -14 -14 -18 -2 -33 12 -14 10 -19 -11 -36 -14 -11 -52 -45 -86 -76 -34
-32 -70 -64 -81 -72 -11 -8 -44 -35 -73 -59 -186 -160 -672 -424 -724 -394 -6
3 -8 2 -3 -2 10 -12 -95 -50 -238 -86 -418 -106 -900 -104 -1290 7 -225 64
-491 178 -650 279 -72 45 -200 131 -223 150 -361 286 -616 600 -789 970 -119
254 -213 621 -213 830 l0 65 374 0 c332 0 376 2 391 16 9 9 15 26 13 38 -3 20
-10 21 -143 27 -77 4 -247 7 -377 8 l-238 1 0 25 c0 23 4 25 43 26 97 1 693 9
705 9 17 0 15 30 -5 52 -15 17 -41 18 -396 18 l-380 0 7 103 c10 142 49 360
90 503 131 454 380 847 751 1184 213 193 513 370 825 487 136 51 505 142 460
113 -8 -5 -10 -10 -4 -10 5 0 14 4 20 9 19 18 94 26 127 12z m547 -20 c0 -9
-48 -21 -86 -21 -13 0 -24 4 -24 9 0 9 17 12 93 19 9 1 17 -2 17 -7z m123 2
c-7 -2 -21 -2 -30 0 -10 3 -4 5 12 5 17 0 24 -2 18 -5z m-3 -23 c0 -5 -6 -10
-14 -10 -8 0 -18 5 -21 10 -3 6 3 10 14 10 12 0 21 -4 21 -10z m-76 -6 c29
-11 6 -24 -42 -24 l-47 1 30 14 c36 16 39 17 59 9z m199 -1 c-13 -2 -35 -2
-50 0 -16 2 -5 4 22 4 28 0 40 -2 28 -4z m94 -9 c-3 -3 -12 -4 -19 -1 -8 3 -5
6 6 6 11 1 17 -2 13 -5z m-189 -11 c-10 -2 -28 -2 -40 0 -13 2 -5 4 17 4 22 1
32 -1 23 -4z m85 0 c-7 -2 -21 -2 -30 0 -10 3 -4 5 12 5 17 0 24 -2 18 -5z
m217 -42 c-10 -7 -1 -11 30 -14 l45 -4 -47 -1 c-45 -2 -58 5 -41 21 3 4 11 7
17 7 6 0 4 -4 -4 -9z m68 -38 c-10 -2 -28 -2 -40 0 -13 2 -5 4 17 4 22 1 32
-1 23 -4z m238 -73 c3 0 2 5 -2 12 -5 7 -3 8 5 3 23 -13 -4 -26 -32 -16 -15 6
-27 13 -27 16 0 2 12 0 26 -5 14 -6 28 -10 30 -10z m-69 4 c-3 -3 -12 -4 -19
-1 -8 3 -5 6 6 6 11 1 17 -2 13 -5z m211 -66 c-7 -4 -20 -7 -28 -7 -12 0 -12
2 -1 6 11 4 8 10 -10 25 -24 19 -24 19 14 1 25 -11 33 -19 25 -25z m37 -8 c3
-5 1 -10 -4 -10 -6 0 -11 5 -11 10 0 6 2 10 4 10 3 0 8 -4 11 -10z m-28 -16
c-3 -3 -12 -4 -19 -1 -8 3 -5 6 6 6 11 1 17 -2 13 -5z m223 -137 c0 -11 -39
16 -45 31 -3 8 4 6 20 -5 13 -10 25 -21 25 -26z m-498 6 c25 -22 23 -33 -7
-33 -20 0 -25 5 -25 25 0 29 7 31 32 8z m549 -30 c13 -17 13 -17 -6 -3 -11 8
-22 16 -24 17 -2 2 0 3 6 3 6 0 17 -8 24 -17z m34 7 c3 -6 -1 -7 -9 -4 -18 7
-21 14 -7 14 6 0 13 -4 16 -10z m55 -70 c0 -5 -2 -10 -4 -10 -3 0 -8 5 -11 10
-3 6 -1 10 4 10 6 0 11 -4 11 -10z m80 -44 c0 -2 -8 -10 -17 -17 -16 -13 -17
-12 -4 4 13 16 21 21 21 13z m10 -36 c-24 -15 -36 -11 -14 4 10 8 21 12 24 10
2 -3 -2 -9 -10 -14z m90 -64 c-4 -4 -16 -4 -26 2 -16 9 -14 10 8 9 15 -1 23
-6 18 -11z m50 -50 c9 -12 8 -15 -9 -13 -12 1 -21 7 -21 14 0 17 15 16 30 -1z
m-2313 -102 c-3 -3 -12 -4 -19 -1 -8 3 -5 6 6 6 11 1 17 -2 13 -5z m2420 -14
c14 -11 21 -20 16 -20 -6 0 -16 7 -23 15 -16 19 -34 19 -27 0 4 -8 2 -17 -2
-19 -5 -3 -7 5 -6 17 4 35 7 35 42 7z m-2513 -21 c-29 -12 -36 -10 -22 5 7 7
19 11 27 8 11 -4 10 -7 -5 -13z m2601 -49 c10 -11 16 -20 13 -20 -3 0 -13 9
-23 20 -10 11 -16 20 -13 20 3 0 13 -9 23 -20z m-1 -42 c-3 -4 -10 -8 -16 -8
-6 0 -8 3 -5 7 4 3 1 13 -6 21 -11 13 -9 14 10 2 12 -8 19 -18 17 -22z m66
-39 c15 -28 5 -23 -15 7 -9 15 -12 23 -6 20 6 -4 16 -16 21 -27z m-25 -9 c3
-5 1 -10 -4 -10 -6 0 -11 5 -11 10 0 6 2 10 4 10 3 0 8 -4 11 -10z m15 -30
c-8 -5 -19 -10 -25 -10 -5 0 -3 5 5 10 8 5 20 10 25 10 6 0 3 -5 -5 -10z
m-2097 -17 c-7 -2 -21 -2 -30 0 -10 3 -4 5 12 5 17 0 24 -2 18 -5z m217 -3
c31 -5 15 -6 -50 -3 -52 3 -97 7 -99 9 -8 7 104 3 149 -6z m1961 -45 c8 -16 6
-15 -10 4 -12 13 -21 28 -21 35 0 12 14 -5 31 -39z m-2091 26 c0 -6 -17 -7
-37 -4 -52 8 -54 13 -5 13 23 0 42 -4 42 -9z m75 -1 c-27 -12 -43 -12 -25 0 8
5 22 9 30 9 10 0 8 -3 -5 -9z m-177 -5 c-8 -8 -147 -9 -155 -2 -3 4 31 7 77 7
46 0 81 -2 78 -5z m291 -11 c9 -8 -45 -2 -64 6 -14 7 -8 8 20 3 22 -3 42 -7
44 -9z m-477 -10 c-12 -8 -28 -13 -35 -11 -7 3 -5 6 6 6 9 1 17 6 17 11 0 6 8
10 17 10 14 0 13 -3 -5 -16z m55 0 c-3 -3 -12 -4 -19 -1 -8 3 -5 6 6 6 11 1
17 -2 13 -5z m2311 -29 c-3 -3 -9 2 -12 12 -6 14 -5 15 5 6 7 -7 10 -15 7 -18z
m-2421 9 c-3 -3 -12 -4 -19 -1 -8 3 -5 6 6 6 11 1 17 -2 13 -5z m807 -13 c4
-5 -3 -7 -14 -4 -23 6 -26 13 -6 13 8 0 17 -4 20 -9z m43 3 c-3 -3 -12 -4 -19
-1 -8 3 -5 6 6 6 11 1 17 -2 13 -5z m1624 -26 c11 -21 11 -22 -4 -9 -10 7 -17
17 -17 22 0 15 9 10 21 -13z m-44 -23 c-16 -17 -17 -14 -10 14 4 15 8 19 13
10 5 -6 3 -18 -3 -24z m71 -26 c3 -11 1 -11 -7 1 -9 13 -11 12 -11 -6 0 -29
10 -36 29 -21 14 10 14 10 3 -5 -8 -9 -11 -22 -7 -28 3 -5 3 -10 -2 -10 -4 0
-17 20 -29 43 -20 43 -20 43 0 42 11 -1 22 -8 24 -16z m-2778 1 c-8 -5 -19
-10 -25 -10 -5 0 -3 5 5 10 8 5 20 10 25 10 6 0 3 -5 -5 -10z m310 -233 l0
-154 -42 -12 c-62 -19 -199 -84 -255 -122 -179 -122 -337 -324 -401 -514 -61
-180 -74 -403 -34 -570 84 -346 309 -619 619 -750 43 -18 86 -35 96 -38 15 -6
17 -23 17 -162 0 -86 -4 -155 -9 -155 -21 0 -197 62 -267 94 -366 169 -652
504 -744 871 -62 243 -65 447 -12 655 69 269 160 430 357 625 127 128 250 218
380 281 72 34 256 102 283 103 9 1 12 -36 12 -152z m700 111 c406 -142 729
-462 859 -855 54 -160 66 -241 65 -428 0 -137 -5 -190 -23 -275 -65 -306 -248
-588 -510 -786 -86 -65 -309 -183 -386 -203 -22 -6 -61 -18 -88 -26 l-48 -14
3 156 3 156 50 17 c148 50 289 142 410 265 139 141 230 314 270 514 22 106 16
353 -9 446 -67 242 -206 451 -387 585 -78 58 -243 148 -311 170 l-38 12 0 154
0 154 28 -6 c15 -4 65 -20 112 -36z m447 36 c-3 -3 -12 -4 -19 -1 -8 3 -5 6 6
6 11 1 17 -2 13 -5z m1353 -8 c0 -3 -4 -8 -10 -11 -5 -3 -10 -1 -10 4 0 6 5
11 10 11 6 0 10 -2 10 -4z m20 -36 c0 -5 -4 -10 -10 -10 -5 0 -10 5 -10 10 0
6 5 10 10 10 6 0 10 -4 10 -10z m36 -77 c-8 -15 -15 -25 -16 -21 0 12 23 58
27 54 3 -2 -2 -17 -11 -33z m82 -248 c0 -16 -2 -15 -8 5 -4 14 -8 34 -8 45 0
16 2 15 8 -5 4 -14 8 -34 8 -45z m-2180 -111 c39 -9 72 -21 72 -26 0 -6 -6 -8
-12 -5 -44 16 -60 18 -54 8 4 -6 17 -11 29 -12 21 -1 20 -2 -3 -10 -24 -8 -23
-9 5 -5 17 2 39 0 50 -5 16 -8 15 -8 -7 -4 -22 4 -28 1 -29 -12 -4 -53 -8 -66
-20 -75 -10 -6 -7 -7 10 -3 15 5 21 3 17 -3 -3 -6 0 -13 6 -15 7 -3 -5 -6 -27
-7 l-40 -2 38 -10 c72 -19 36 -25 -45 -7 -118 26 -239 24 -350 -6 -17 -4 -28
-3 -28 3 0 6 19 13 43 17 55 9 83 24 42 22 -63 -2 -110 3 -97 12 17 11 12 87
-5 84 -7 -2 -13 1 -13 6 0 4 24 13 53 19 l52 11 -47 -4 c-26 -3 -50 -1 -53 4
-3 5 5 7 17 3 13 -3 19 -1 15 5 -7 10 5 15 88 33 55 12 205 4 293 -16z m-468
-48 c0 -2 -7 -7 -16 -10 -8 -3 -12 -2 -9 4 6 10 25 14 25 6z m2717 -68 c-3 -7
-5 -2 -5 12 0 14 2 19 5 13 2 -7 2 -19 0 -25z m-2604 -55 c-7 -2 -19 -2 -25 0
-7 3 -2 5 12 5 14 0 19 -2 13 -5z m367 -41 c186 -65 312 -171 399 -333 56
-106 75 -182 75 -314 0 -188 -54 -316 -190 -451 -142 -142 -320 -212 -508
-201 -291 16 -529 209 -607 492 -18 69 -21 97 -16 200 3 85 11 137 26 178 78
219 256 380 484 438 94 24 256 20 337 -9z m2327 -134 c-3 -8 -6 -5 -6 6 -1 11
2 17 5 13 3 -3 4 -12 1 -19z m-10 -120 c-3 -8 -6 -5 -6 6 -1 11 2 17 5 13 3
-3 4 -12 1 -19z m30 -15 c-3 -10 -5 -4 -5 12 0 17 2 24 5 18 2 -7 2 -21 0 -30z
m-20 -95 c-3 -7 -5 -2 -5 12 0 14 2 19 5 13 2 -7 2 -19 0 -25z m0 -330 c-3 -8
-6 -5 -6 6 -1 11 2 17 5 13 3 -3 4 -12 1 -19z m20 -140 c-3 -8 -6 -5 -6 6 -1
11 2 17 5 13 3 -3 4 -12 1 -19z m-10 -50 c-3 -7 -5 -2 -5 12 0 14 2 19 5 13 2
-7 2 -19 0 -25z m-30 -65 c-3 -10 -5 -2 -5 17 0 19 2 27 5 18 2 -10 2 -26 0
-35z m24 1 c-9 -28 -9 -29 -10 -3 -1 14 2 29 6 32 11 12 13 2 4 -29z m-41
-113 c0 -5 -6 -13 -13 -19 -10 -8 -16 -6 -25 9 -11 17 -9 19 13 19 14 0 25 -4
25 -9z m-63 -63 c-3 -8 -6 -5 -6 6 -1 11 2 17 5 13 3 -3 4 -12 1 -19z m17 -58
c-1 -64 -11 -76 -12 -14 -1 40 3 64 11 64 1 0 2 -22 1 -50z m23 -7 c-3 -10 -5
-4 -5 12 0 17 2 24 5 18 2 -7 2 -21 0 -30z m-14 -91 c-3 -12 -10 -22 -15 -22
-5 0 -7 3 -5 8 2 4 7 16 11 26 9 25 17 16 9 -12z m-87 -137 c-5 -26 -3 -37 7
-41 9 -3 13 -13 10 -25 -5 -18 -6 -19 -19 -2 -20 27 -18 103 4 103 2 0 1 -16
-2 -35z m-3031 -555 c3 -5 1 -10 -4 -10 -6 0 -11 5 -11 10 0 6 2 10 4 10 3 0
8 -4 11 -10z m210 -90 c3 -6 -1 -7 -9 -4 -18 7 -21 14 -7 14 6 0 13 -4 16 -10z
m52 -16 c-3 -3 -12 -4 -19 -1 -8 3 -5 6 6 6 11 1 17 -2 13 -5z m210 -60 c-3
-3 -12 -4 -19 -1 -8 3 -5 6 6 6 11 1 17 -2 13 -5z m1 -21 c-10 -2 -28 -2 -40
0 -13 2 -5 4 17 4 22 1 32 -1 23 -4z m2098 -34 c10 -17 -13 -36 -27 -22 -12
12 -4 33 11 33 5 0 12 -5 16 -11z"/>
<path d="M4763 7653 c9 -2 23 -2 30 0 6 3 -1 5 -18 5 -16 0 -22 -2 -12 -5z"/>
<path d="M4653 7643 c9 -2 23 -2 30 0 6 3 -1 5 -18 5 -16 0 -22 -2 -12 -5z"/>
<path d="M4598 7633 c7 -3 16 -2 19 1 4 3 -2 6 -13 5 -11 0 -14 -3 -6 -6z"/>
<path d="M4733 7633 c9 -2 23 -2 30 0 6 3 -1 5 -18 5 -16 0 -22 -2 -12 -5z"/>
<path d="M4653 7623 c9 -2 23 -2 30 0 6 3 -1 5 -18 5 -16 0 -22 -2 -12 -5z"/>
<path d="M4528 7613 c7 -3 16 -2 19 1 4 3 -2 6 -13 5 -11 0 -14 -3 -6 -6z"/>
<path d="M4778 7613 c7 -3 16 -2 19 1 4 3 -2 6 -13 5 -11 0 -14 -3 -6 -6z"/>
<path d="M4658 7603 c6 -2 18 -2 25 0 6 3 1 5 -13 5 -14 0 -19 -2 -12 -5z"/>
<path d="M5650 7356 c0 -2 7 -9 15 -16 12 -10 15 -10 15 4 0 9 -7 16 -15 16
-8 0 -15 -2 -15 -4z"/>
<path d="M6081 7024 c0 -11 3 -14 6 -6 3 7 2 16 -1 19 -3 4 -6 -2 -5 -13z"/>
<path d="M4260 6735 c-16 -19 0 -19 26 0 16 12 16 14 3 15 -9 0 -22 -7 -29
-15z"/>
<path d="M4195 6690 c3 -5 10 -10 16 -10 5 0 9 5 9 10 0 6 -7 10 -16 10 -8 0
-12 -4 -9 -10z"/>
<path d="M4155 6670 c-3 -6 1 -7 9 -4 18 7 21 14 7 14 -6 0 -13 -4 -16 -10z"/>
<path d="M4598 6553 c7 -3 16 -2 19 1 4 3 -2 6 -13 5 -11 0 -14 -3 -6 -6z"/>
<path d="M4403 6445 c0 -7 6 -11 14 -8 7 3 13 6 13 8 0 2 -6 5 -13 8 -8 3 -14
-1 -14 -8z"/>
<path d="M6993 4883 c9 -2 25 -2 35 0 9 3 1 5 -18 5 -19 0 -27 -2 -17 -5z"/>
<path d="M7283 4680 c0 -25 2 -35 4 -22 2 12 2 32 0 45 -2 12 -4 2 -4 -23z"/>
<path d="M7330 4400 c0 -64 3 -80 15 -80 12 0 15 16 15 80 0 64 -3 80 -15 80
-12 0 -15 -16 -15 -80z"/>
<path d="M7400 4305 c0 -8 4 -15 9 -15 5 0 11 7 15 15 3 9 0 15 -9 15 -8 0
-15 -7 -15 -15z"/>
<path d="M7380 4060 c6 -11 13 -20 16 -20 2 0 0 9 -6 20 -6 11 -13 20 -16 20
-2 0 0 -9 6 -20z"/>
<path d="M4027 3989 c7 -7 15 -10 18 -7 3 3 -2 9 -12 12 -14 6 -15 5 -6 -5z"/>
<path d="M7335 3990 c3 -5 8 -10 11 -10 2 0 4 5 4 10 0 6 -5 10 -11 10 -5 0
-7 -4 -4 -10z"/>
<path d="M4069 3953 c11 -22 30 -38 35 -32 2 2 -8 15 -21 29 -23 23 -24 23
-14 3z"/>
<path d="M7315 3950 c-3 -5 -1 -10 4 -10 6 0 11 5 11 10 0 6 -2 10 -4 10 -3 0
-8 -4 -11 -10z"/>
<path d="M4152 3876 c7 -8 15 -12 17 -11 5 6 -10 25 -20 25 -5 0 -4 -6 3 -14z"/>
<path d="M7230 3814 c0 -8 5 -12 10 -9 6 3 10 10 10 16 0 5 -4 9 -10 9 -5 0
-10 -7 -10 -16z"/>
<path d="M4488 3623 c6 -2 18 -2 25 0 6 3 1 5 -13 5 -14 0 -19 -2 -12 -5z"/>
<path d="M4506 3603 c27 -4 30 -7 26 -34 -3 -24 -1 -28 12 -23 11 4 16 1 16
-10 0 -21 46 -21 54 0 10 26 7 33 -20 50 -22 15 -27 15 -35 3 -7 -11 -9 -11
-9 4 0 13 -8 17 -37 15 -35 -1 -35 -2 -7 -5z"/>
<path d="M4385 3390 c3 -5 8 -10 11 -10 2 0 4 5 4 10 0 6 -5 10 -11 10 -5 0
-7 -4 -4 -10z"/>
<path d="M4426 3375 c4 -8 8 -15 10 -15 2 0 4 7 4 15 0 8 -4 15 -10 15 -5 0
-7 -7 -4 -15z"/>
<path d="M4460 3356 c0 -3 32 -15 71 -26 39 -12 78 -24 85 -27 8 -3 14 0 14 6
0 6 -6 11 -12 11 -7 0 -25 6 -39 14 -27 14 -119 31 -119 22z"/>
<path d="M6825 3350 c3 -5 8 -10 11 -10 2 0 4 5 4 10 0 6 -5 10 -11 10 -5 0
-7 -4 -4 -10z"/>
<path d="M6675 3240 c-3 -5 -2 -10 4 -10 5 0 13 5 16 10 3 6 2 10 -4 10 -5 0
-13 -4 -16 -10z"/>
<path d="M6567 3185 c3 -8 9 -12 14 -9 12 7 11 11 -5 17 -10 4 -13 1 -9 -8z"/>
<path d="M6635 3190 c-12 -4 -27 -16 -35 -26 -14 -18 -14 -18 6 -1 11 9 26 17
32 17 6 0 14 5 17 10 7 11 7 12 -20 0z"/>
<path d="M6517 3109 c-9 -5 -23 -7 -30 -3 -9 5 -9 4 -1 -5 9 -10 18 -10 40 3
16 8 25 15 19 15 -5 0 -18 -4 -28 -10z"/>
<path d="M6365 3020 c-3 -6 1 -7 9 -4 18 7 21 14 7 14 -6 0 -13 -4 -16 -10z"/>
<path d="M6330 3000 c-9 -6 -10 -10 -3 -10 6 0 15 5 18 10 8 12 4 12 -15 0z"/>
<path d="M6208 2943 c7 -3 16 -2 19 1 4 3 -2 6 -13 5 -11 0 -14 -3 -6 -6z"/>
<path d="M5808 2783 c6 -2 18 -2 25 0 6 3 1 5 -13 5 -14 0 -19 -2 -12 -5z"/>
<path d="M5248 5883 c6 -2 18 -2 25 0 6 3 1 5 -13 5 -14 0 -19 -2 -12 -5z"/>
<path d="M4938 5853 c7 -3 16 -2 19 1 4 3 -2 6 -13 5 -11 0 -14 -3 -6 -6z"/>
<path d="M5053 5743 c9 -2 23 -2 30 0 6 3 -1 5 -18 5 -16 0 -22 -2 -12 -5z"/>
<path d="M5158 5743 c6 -2 18 -2 25 0 6 3 1 5 -13 5 -14 0 -19 -2 -12 -5z"/>
<path d="M4997 5385 c-86 -33 -169 -117 -202 -207 -13 -36 -16 -66 -13 -120
14 -219 217 -356 434 -293 78 23 172 114 200 195 56 165 -14 328 -176 411 -57
29 -185 36 -243 14z m171 -140 c125 -53 157 -202 63 -296 -117 -118 -301 -36
-301 134 0 122 127 208 238 162z"/>
</g>
</svg>
